<?xml version="1.0" encoding="utf-8"?>
<!-- Generator: Adobe Illustrator 25.3.0, SVG Export Plug-In . SVG Version: 6.00 Build 0)  -->
<svg version="1.1" id="svg" xmlns="http://www.w3.org/2000/svg" xmlns:xlink="http://www.w3.org/1999/xlink" x="0px" y="0px"
	 viewBox="0 0 400 400" enable-background="new 0 0 400 400" xml:space="preserve">
<g id="svgg">
	<path id="path0" fill-rule="evenodd" clip-rule="evenodd" fill="#22B8E6" d="M131.6,129.5c0,0.2-0.6,0.6-1.4,0.9
		c-0.8,0.3-1.4,0.7-1.4,0.9s-0.2,0.3-0.5,0.3c-0.5,0-1,0.6-2.5,3.2c-1.3,2.2-1.5,135.4-0.3,138.1c1.2,2.7,4.2,5.5,5.8,5.5
		c0.5,0,1,0.2,1,0.4c0,0.3,22.7,0.4,67.4,0.4s67.4-0.1,67.4-0.4c0-0.2,0.4-0.4,1-0.4c0.5,0,1-0.2,1-0.4s0.3-0.4,0.6-0.4
		c0.8,0,3.2-2.5,4.2-4.5c1-2,1.2-135.1,0.2-137.6c-0.8-1.8-3.2-4.4-5.3-5.5l-1.7-0.9h-67.8C162.1,129.2,131.6,129.3,131.6,129.5
		 M253.6,204v53.6H200h-53.6V204v-53.6H200h53.6V204"/>
	<path id="path1" fill-rule="evenodd" clip-rule="evenodd" fill="#E8E9F3" d="M100.7,91.2c-9.2,4.6-14.9,12.7-16.5,23.4
		c-0.8,5.3-0.8,173.9,0,179.2c1.7,11.8,9,20.8,19.6,24.5c4.5,1.6,1.1,1.5,96,1.5c94.8,0,91.4,0.1,96-1.5c7.1-2.4,13.3-7.8,16.9-14.8
		c0.8-1.5,1.3-3,1.2-3.3c-0.2-0.5-13.2-0.6-87-0.6c-57.4,0-86.9-0.1-87-0.4c-0.1-0.2-1.1-0.4-2.2-0.4c-1.1,0-2-0.2-2-0.4
		s-0.7-0.4-1.6-0.4s-1.7-0.2-1.8-0.4s-0.7-0.4-1.2-0.4s-1-0.2-1-0.4s-0.4-0.4-0.8-0.4s-0.8-0.2-0.8-0.4s-0.3-0.4-0.6-0.4
		s-1.3-0.4-2.1-0.9c-0.8-0.5-2-1.1-2.5-1.4c-0.6-0.3-1.4-0.9-1.9-1.3c-0.5-0.5-1.1-0.8-1.3-0.8c-0.6,0-7.2-6.7-7.2-7.3
		c0-0.3-0.4-0.8-0.8-1.1c-0.4-0.3-0.8-0.8-0.8-1.1c0-0.3-0.2-0.5-0.4-0.5c-0.2,0-0.4-0.3-0.4-0.6c0-0.3-0.2-0.6-0.4-0.6
		s-0.4-0.4-0.4-0.8s-0.2-0.8-0.4-0.8c-0.2,0-0.4-0.2-0.4-0.4c0-0.2-0.3-1.1-0.6-1.9c-0.4-0.8-0.8-1.9-1-2.5
		c-0.2-0.6-0.6-1.3-0.8-1.7c-0.2-0.4-0.4-1.2-0.4-1.8c0-0.6-0.2-1.3-0.4-1.5c-0.8-0.9-0.9-9.3-1.1-92.1c-0.2-82-0.2-86.5-0.9-86.5
		C103.3,90,102,90.5,100.7,91.2"/>
	<path id="path2" fill-rule="evenodd" clip-rule="evenodd" fill="#1F3D99" d="M153,0.3c-0.4,0.1-1.1,0.6-1.6,1S150.4,2,150.1,2
		c-0.3,0-0.5,0.2-0.5,0.5c0,0.3-0.4,0.9-0.8,1.4S148,5,148,5.4c0,0.3-0.2,0.6-0.4,0.6c-0.3,0-0.4,10.5-0.4,30.8v30.8H137h-10.2V55.2
		c0-8-0.1-12.4-0.4-12.4c-0.2,0-0.4-0.9-0.4-2c0-1.1-0.2-2-0.4-2s-0.4-0.3-0.4-0.7c0-0.9-3-4.1-3.8-4.1c-0.3,0-0.6-0.2-0.6-0.4
		c0-0.2-0.7-0.4-1.6-0.4c-0.9,0-1.7-0.2-1.8-0.4c-0.3-0.5-3-0.5-3,0c0,0.2-0.7,0.4-1.6,0.4c-0.9,0-1.6,0.2-1.6,0.4
		c0,0.2-0.3,0.4-0.7,0.4c-0.4,0-1,0.4-1.3,0.8c-0.3,0.4-0.8,0.8-1.1,0.8c-0.3,0-0.5,0.3-0.5,0.7c0,0.4-0.4,1-0.8,1.3
		c-0.5,0.3-0.8,1-0.8,1.7c0,0.6-0.2,1.1-0.4,1.1c-0.3,0-0.4,4.9-0.4,14v14h-1.6c-0.9,0-1.6,0.2-1.6,0.4c0,0.2-0.7,0.4-1.6,0.4
		c-0.9,0-1.6,0.2-1.6,0.4S98.3,70,97.6,70c-0.7,0-1.2,0.2-1.2,0.4s-0.3,0.4-0.8,0.4s-0.9,0.2-1,0.4c-0.1,0.2-0.6,0.4-1,0.4
		c-0.4,0-0.8,0.2-0.8,0.4s-0.4,0.4-0.8,0.4s-0.8,0.2-0.8,0.4c0,0.2-0.4,0.4-0.8,0.4c-0.4,0-0.8,0.2-0.8,0.4S89.2,74,88.8,74
		c-0.4,0-0.8,0.2-0.8,0.3c0,0.2-0.7,0.7-1.6,1.1c-0.9,0.4-1.6,0.9-1.6,1.1c0,0.2-0.2,0.3-0.5,0.3c-1,0-9.1,7.5-9.1,8.4
		c0,0.2-0.6,1-1.4,1.8c-0.8,0.8-1.4,1.6-1.4,1.9c0,0.3-0.4,0.8-0.8,1.1c-0.4,0.3-0.8,0.9-0.8,1.3c0,0.4-0.2,0.7-0.4,0.7
		S70,92.3,70,92.6s-0.2,0.6-0.4,0.6s-0.4,0.3-0.4,0.6c0,0.3-0.2,0.6-0.4,0.6c-0.2,0-0.4,0.4-0.4,0.8c0,0.4-0.2,0.8-0.4,0.8
		s-0.4,0.3-0.4,0.8s-0.2,0.9-0.4,1c-0.2,0.1-0.4,0.6-0.4,1c0,0.4-0.2,0.8-0.4,0.8s-0.4,0.5-0.4,1.2c0,0.7-0.2,1.2-0.4,1.2
		s-0.4,0.5-0.4,1.2c0,0.7-0.2,1.2-0.4,1.2c-0.2,0-0.4,0.7-0.4,1.6s-0.2,1.6-0.4,1.6s-0.4,0.3-0.4,0.6c0,0.5-1.6,0.6-12.2,0.6
		c-11.7,0-14,0.2-17.1,1.3c-0.6,0.2-1.1,0.6-1.1,0.7c0,0.2-0.2,0.4-0.5,0.4c-0.6,0-2.7,2.2-2.7,2.8c0,0.2-0.2,0.4-0.4,0.4
		c-0.2,0-0.4,0.3-0.4,0.8c0,0.4-0.2,0.9-0.4,1c-1,0.6-0.2,9,0.9,9c0.2,0,0.3,0.3,0.3,0.6c0,0.8,2.6,3.4,3.4,3.4
		c0.3,0,0.6,0.2,0.6,0.4s0.5,0.4,1.2,0.4s1.2,0.2,1.2,0.4c0,0.3,4.7,0.4,13.2,0.4h13.2V141v10.2h-26c-17.1,0-26,0.1-26,0.4
		c0,0.2-0.3,0.4-0.6,0.4c-1.4,0-5.8,3.8-5.8,5c0,0.3-0.2,0.7-0.4,0.8c-0.5,0.3-0.5,8.2,0,8.2c0.2,0,0.4,0.4,0.4,0.8s0.2,0.8,0.4,0.8
		c0.2,0,0.4,0.3,0.4,0.6c0,1.4,4,4.2,6,4.2c0.6,0,1.3,0.2,1.4,0.4c0.2,0.3,9,0.4,25.2,0.4h25v10v10H49.2c-8.8,0-13.6,0.1-13.6,0.4
		c0,0.2-0.3,0.4-0.6,0.4c-1.6,0-5.3,3.4-5.7,5.3c-0.1,0.6-0.4,1.1-0.6,1.1c-0.5,0-0.4,7.1,0,7.4c0.2,0.1,0.4,0.5,0.4,0.8
		s0.4,1,1,1.6c0.5,0.6,1,1.2,1,1.4c0,0.2,0.2,0.4,0.5,0.4c0.3,0,0.8,0.4,1.1,0.8c0.3,0.4,0.9,0.8,1.3,0.8c0.4,0,0.7,0.2,0.7,0.4
		c0,0.3,4.9,0.4,14,0.4h14V225v10.6H36.6c-25.8,0-27.1,0.1-28.2,1.2c-0.1,0.1-0.7,0.5-1.3,0.8c-0.6,0.3-1.1,0.8-1.1,1
		c0,0.3-0.4,0.8-0.8,1.3c-0.4,0.5-0.8,1.1-0.8,1.5c0,0.3-0.2,0.6-0.4,0.6c-0.2,0-0.4,1.7-0.4,4.2c0,2.5,0.2,4.2,0.4,4.2
		c0.2,0,0.4,0.3,0.4,0.6c0,0.9,4.3,5,5.2,5c0.4,0,0.8,0.2,1,0.4c0.2,0.3,9.3,0.4,26.2,0.4h26v10v10H50.7c-6.6,0-12.6,0.2-13.3,0.4
		c-0.7,0.2-1.7,0.5-2.3,0.6c-0.6,0.1-1.3,0.4-1.6,0.7c-0.3,0.3-1,0.8-1.6,1.1c-0.6,0.3-1.1,0.8-1.1,1c0,0.3-0.4,0.8-0.8,1.3
		c-0.4,0.5-0.8,1.1-0.8,1.5c0,0.3-0.2,0.7-0.4,0.8c-0.2,0.1-0.4,1.9-0.4,3.8c0,2.1,0.2,3.6,0.4,3.6c0.2,0,0.4,0.4,0.4,0.8
		s0.2,0.8,0.4,0.8c0.2,0,0.4,0.3,0.4,0.6c0,0.8,2.6,3.4,3.4,3.4c0.3,0,0.6,0.2,0.6,0.4s0.5,0.4,1.2,0.4s1.2,0.2,1.2,0.4
		c0,0.3,4.8,0.4,13.6,0.4c13.3,0,13.6,0,13.6,0.8c0,0.4,0.2,0.8,0.4,0.8s0.4,0.7,0.4,1.6s0.2,1.6,0.4,1.6c0.2,0,0.4,0.6,0.4,1.4
		s0.2,1.4,0.4,1.4s0.4,0.3,0.4,0.8s0.2,0.9,0.4,1c0.2,0.1,0.4,0.7,0.4,1.2c0,0.5,0.2,1,0.4,1c0.2,0,0.4,0.4,0.4,0.8s0.2,0.8,0.4,0.8
		s0.4,0.4,0.4,0.8s0.2,0.8,0.4,0.8c0.2,0,0.4,0.4,0.4,0.8s0.2,0.8,0.4,0.8s0.4,0.3,0.4,0.6c0,0.3,0.2,0.6,0.4,0.6s0.4,0.3,0.4,0.6
		s0.2,0.6,0.4,0.6c0.2,0,0.4,0.2,0.4,0.5c0,0.3,0.5,1.1,1.2,1.8c0.7,0.7,1.2,1.4,1.2,1.7c0,0.6,7.9,8.4,8.4,8.4c0.3,0,1,0.5,1.6,1.2
		c0.6,0.7,1.3,1.2,1.6,1.2c0.3,0,0.8,0.4,1.3,0.8s1.1,0.8,1.4,0.8c0.3,0,0.5,0.2,0.5,0.4s0.4,0.4,0.8,0.4c0.4,0,0.8,0.2,0.8,0.4
		s0.4,0.4,0.8,0.4c0.4,0,0.8,0.1,0.8,0.3c0,0.3,0.8,0.6,3.4,1.7c0.4,0.2,1.2,0.5,1.8,0.7c0.6,0.2,1.7,0.6,2.6,0.8
		c0.9,0.2,2.5,0.7,3.5,0.9l1.9,0.5v13.9c0,9,0.1,13.9,0.4,13.9c0.2,0,0.4,0.4,0.4,0.8s0.2,0.8,0.4,0.8s0.4,0.3,0.4,0.6
		c0,3.5,9.6,6.1,14.2,4c2.7-1.3,5-4.6,5-7.2c0-0.7,0.2-1.3,0.4-1.3c0.3,0,0.4-4.4,0.4-12.4v-12.4H137h10.2v26.4
		c0,17.3,0.1,26.4,0.4,26.4c0.2,0,0.4,0.3,0.4,0.6s0.4,1,0.8,1.5c0.4,0.5,0.8,1.1,0.8,1.4c0,0.3,0.2,0.5,0.5,0.5
		c0.3,0,1,0.4,1.5,0.9c0.9,0.8,1.3,0.9,6.2,0.9c4.9,0,5.3-0.1,6.2-0.9c0.5-0.5,1.2-0.9,1.5-0.9c0.3,0,0.5-0.2,0.5-0.5
		c0-0.3,0.4-0.9,0.8-1.4c0.4-0.5,0.8-1.1,0.8-1.5s0.2-0.6,0.4-0.6c0.3,0,0.4-9.1,0.4-26.4v-26.4h10.2h10.2v12.2
		c0,7.7,0.1,12.3,0.4,12.4c0.2,0.1,0.4,0.9,0.4,1.6c0,1.2,0.5,2.7,1.2,3.4c0.1,0.1,0.4,0.7,0.7,1.2c1.4,2.6,7.1,4,12.2,3
		c2.3-0.4,5.8-4.1,5.8-6.1c0-0.3,0.2-0.5,0.4-0.5c0.3,0,0.4-4.8,0.4-13.6v-13.6h10.2h10.2v25.6c0,16.8,0.1,25.6,0.4,25.6
		c0.2,0,0.4,0.5,0.4,1.2s0.2,1.2,0.4,1.2s0.4,0.3,0.4,0.6c0,2.8,4.5,4.7,10.7,4.5l4.3-0.1l1.9-1.9c1-1,1.9-2.2,1.9-2.5
		c0-0.3,0.2-0.6,0.4-0.6s0.4-0.5,0.4-1.2s0.2-1.2,0.4-1.2c0.3,0,0.4-8.8,0.4-25.6v-25.6H263h10.2v13.6c0,8.8,0.1,13.6,0.4,13.6
		c0.2,0,0.4,0.4,0.4,0.8s0.2,0.8,0.4,0.8s0.4,0.3,0.4,0.6c0,5.3,15,6.4,17.3,1.3c0.3-0.6,0.6-1.1,0.8-1.1c0.2,0,0.3-0.3,0.3-0.6
		c0-0.3,0.2-0.6,0.4-0.6s0.4-0.8,0.4-1.8c0-1,0.2-1.8,0.4-1.8c0.3,0,0.4-4.5,0.4-12.7l0-12.7l1.1-0.5c0.6-0.3,1.7-0.5,2.4-0.5
		s1.3-0.2,1.3-0.4s0.5-0.4,1.2-0.4c0.7,0,1.2-0.2,1.2-0.4s0.4-0.4,0.8-0.4s1.1-0.2,1.5-0.4c2.9-1.5,4.2-2,4.6-2
		c0.3,0,0.7-0.4,1.1-0.8s0.9-0.8,1.3-0.8c0.4,0,0.7-0.2,0.7-0.4s0.3-0.4,0.7-0.4c0.4,0,1-0.4,1.3-0.8s0.8-0.8,1.1-0.8
		c0.3,0,1-0.5,1.6-1.1c0.6-0.6,1.7-1.6,2.5-2.1c1.6-1.1,3.5-3.1,5.1-5.2c0.6-0.8,1.4-1.7,1.8-2c0.4-0.4,0.7-0.9,0.7-1.2
		c0-0.3,0.4-0.8,0.8-1.1c0.4-0.3,0.8-0.9,0.8-1.2c0-0.3,0.4-0.9,0.8-1.2c0.4-0.3,0.8-0.9,0.8-1.3c0-0.4,0.2-0.7,0.4-0.7
		s0.4-0.4,0.4-0.8s0.2-0.8,0.4-0.8s0.4-0.4,0.4-0.8s0.2-0.8,0.4-0.8s0.4-0.3,0.4-0.6s0.2-1,0.4-1.4c0.2-0.4,0.6-1.2,0.8-1.6
		c0.2-0.4,0.4-1.1,0.4-1.6c0-0.4,0.2-0.9,0.4-1s0.4-0.8,0.4-1.4s0.2-1.3,0.4-1.4c0.2-0.1,0.4-1,0.4-1.8v-1.6h14c9.1,0,14-0.1,14-0.4
		c0-0.2,0.4-0.4,0.9-0.4c0.5,0,1.3-0.4,1.8-0.8c0.5-0.4,1-0.8,1.3-0.8c0.2,0,0.7-0.5,1.1-1.2c0.4-0.7,0.8-1.2,1-1.2
		c0.1,0,0.4-0.3,0.5-0.7c0.1-0.4,0.5-1.4,0.8-2.3c0.7-1.8,0.8-5.4,0.2-5.4c-0.2,0-0.4-0.5-0.4-1.2s-0.2-1.2-0.4-1.2
		s-0.4-0.3-0.4-0.6c0-0.3-0.8-1.4-1.8-2.4c-1-1-2.1-1.8-2.4-1.8c-0.3,0-0.6-0.2-0.6-0.4s-0.7-0.4-1.6-0.4s-1.7-0.2-1.8-0.4
		c-0.2-0.3-4.9-0.4-12.8-0.4h-12.6v-10v-10h26c14.3,0,26.3-0.2,26.7-0.4c0.4-0.2,1.2-0.6,1.9-0.9c1.5-0.7,3.8-2.9,3.8-3.7
		c0-0.3,0.2-0.6,0.4-0.6s0.4-0.5,0.4-1.2s0.2-1.2,0.4-1.2c0.2,0,0.4-1.2,0.4-2.8s-0.2-2.8-0.4-2.8c-0.2,0-0.4-0.4-0.4-1
		s-0.2-1-0.4-1s-0.4-0.3-0.4-0.6c0-0.3-0.8-1.4-1.8-2.4c-1-1-2.1-1.8-2.4-1.8c-0.3,0-0.6-0.2-0.6-0.4c0-0.3-9.2-0.4-26.8-0.4h-26.8
		V225v-10.6h13.8c13.5,0,13.8,0,15.5-0.9c2.1-1.1,4.3-3.2,4.3-4.1c0-0.3,0.2-0.6,0.4-0.6s0.4-0.5,0.4-1.2c0-0.7,0.2-1.2,0.4-1.2
		c0.5,0,0.3-3.8-0.3-5.8c-0.6-2-2.7-4.9-3.8-5.4c-0.6-0.3-1.1-0.6-1.1-0.7c0-1-3.9-1.2-16.4-1.2h-13.2v-10v-10h25.2
		c16.4,0,25.3-0.1,25.4-0.4c0.1-0.2,0.8-0.4,1.4-0.4c2.4,0,7.2-4.4,7.2-6.6c0-0.3,0.2-0.6,0.4-0.6c0.2,0,0.4-1.3,0.4-3s-0.2-3-0.4-3
		c-0.2,0-0.4-0.5-0.4-1.2s-0.1-1.2-0.3-1.2c-0.2,0-0.6-0.5-0.9-1.1c-0.7-1.4-1.1-1.8-2.5-2.5c-0.6-0.3-1.1-0.7-1.1-0.9
		c0-0.2-0.4-0.3-1-0.3c-0.5,0-1-0.2-1-0.4c0-0.3-9-0.4-26.2-0.4h-26.2V141v-10.2H350c8.8,0,13.6-0.1,13.6-0.4c0-0.2,0.4-0.4,1-0.4
		c0.5,0,1-0.2,1-0.4s0.3-0.4,0.6-0.4c0.3,0,0.6-0.2,0.6-0.4s0.2-0.4,0.5-0.4c0.3,0,0.9-0.5,1.3-1.2c0.4-0.7,0.9-1.2,1.1-1.2
		c0.2,0,0.3-0.3,0.3-0.6s0.2-0.6,0.4-0.6s0.4-0.5,0.4-1.2s0.2-1.3,0.4-1.4c0.5-0.3,0.5-4.6,0-4.6c-0.2,0-0.4-0.5-0.4-1.2
		c0-0.7-0.2-1.2-0.4-1.2s-0.4-0.3-0.4-0.6c0-0.3-0.8-1.4-1.8-2.4c-1-1-2.1-1.8-2.4-1.8c-0.3,0-0.6-0.1-0.6-0.3
		c0-0.9-5.8-1.3-17.4-1.3h-12.2v-1.4c0-0.8-0.2-1.4-0.4-1.4s-0.4-0.7-0.4-1.6c0-0.9-0.2-1.6-0.4-1.6s-0.4-0.4-0.4-1
		c0-0.5-0.2-1.1-0.4-1.2s-0.4-0.6-0.4-1c0-0.4-0.2-0.8-0.4-0.8s-0.4-0.5-0.4-1c0-0.6-0.2-1-0.4-1s-0.4-0.4-0.4-0.8s-0.2-0.8-0.4-0.8
		s-0.4-0.4-0.4-0.8c0-0.4-0.2-0.8-0.4-0.8S330,93.3,330,93s-0.2-0.6-0.4-0.6s-0.4-0.3-0.4-0.6c0-0.3-0.2-0.6-0.3-0.6
		c-0.2,0-0.6-0.5-0.9-1.1c-0.3-0.6-0.9-1.4-1.3-1.7c-0.4-0.4-0.7-0.8-0.7-1.1c0-0.8-8-9.3-8.7-9.3c-0.2,0-0.9-0.4-1.5-1
		c-0.6-0.5-1.4-1-1.6-1c-0.2,0-0.7-0.3-0.9-0.6c-0.3-0.3-0.8-0.6-1.2-0.6c-0.4,0-0.8-0.2-0.8-0.4s-0.3-0.4-0.7-0.4
		c-0.4,0-1-0.4-1.3-0.8c-0.3-0.4-1-0.8-1.5-0.8c-0.5,0-0.9-0.2-0.9-0.4s-0.4-0.4-0.8-0.4s-0.8-0.2-0.8-0.4c0-0.2-0.5-0.4-1.2-0.4
		s-1.2-0.2-1.2-0.4s-0.5-0.4-1.2-0.4s-1.2-0.2-1.2-0.4s-0.5-0.4-1.2-0.4s-1.3-0.2-1.4-0.4c-0.1-0.2-0.9-0.4-1.6-0.4h-1.4v-13
		c0-8.4-0.1-13-0.4-13c-0.2,0-0.4-0.8-0.4-1.8c0-1-0.2-1.8-0.4-1.8s-0.4-0.3-0.4-0.6c0-1.5-4.4-5-6.4-5c-0.7,0-1.3-0.2-1.4-0.4
		c-0.3-0.5-3-0.5-3,0c0,0.2-0.7,0.4-1.6,0.4c-0.9,0-1.6,0.2-1.6,0.4c0,0.2-0.3,0.4-0.6,0.4c-0.5,0-2.5,1.8-4.1,3.7
		c-0.3,0.3-0.5,1.1-0.5,1.6c0,0.6-0.2,1-0.4,1c-0.3,0-0.4,4.8-0.4,13.6v13.6H263h-10.2v-30c0-19.7-0.1-30-0.4-30
		c-0.2,0-0.4-0.5-0.4-1.2s-0.2-1.2-0.4-1.2s-0.4-0.3-0.4-0.6c0-0.3-0.8-1.5-1.9-2.5l-1.9-1.9l-4.3-0.1c-6.2-0.2-10.7,1.7-10.7,4.5
		c0,0.4-0.2,0.6-0.4,0.6s-0.4,0.5-0.4,1.2s-0.2,1.2-0.4,1.2c-0.3,0-0.4,10.3-0.4,30v30h-10.2h-10.2V54c0-8.8-0.1-13.6-0.4-13.6
		c-0.2,0-0.4-0.5-0.4-1.2s-0.2-1.2-0.4-1.2c-0.2,0-0.6-0.5-0.8-1.1c-0.3-0.6-0.9-1.4-1.4-1.7c-0.5-0.3-1-0.7-1-0.9
		c0-0.2-0.4-0.3-0.8-0.3s-0.8-0.2-0.8-0.4c0-0.2-0.6-0.4-1.4-0.4s-1.5-0.2-1.6-0.4c-0.1-0.2-0.9-0.4-1.6-0.4s-1.5,0.2-1.6,0.4
		c-0.1,0.2-0.8,0.4-1.4,0.4c-1.9,0-6.4,3.5-6.4,5c0,0.3-0.2,0.6-0.4,0.6s-0.4,0.9-0.4,2c0,1.1-0.2,2-0.4,2c-0.3,0-0.4,4.4-0.4,12.4
		v12.4h-10.2h-10.2V36.8c0-20.3-0.1-30.8-0.4-30.8c-0.2,0-0.4-0.3-0.4-0.6c0-0.3-0.4-1-0.8-1.5S166,2.8,166,2.5
		c0-0.3-0.2-0.5-0.5-0.5c-0.3,0-1-0.4-1.5-0.9C163,0.2,155.3-0.4,153,0.3 M289.4,89.2c0.1,0.2,0.8,0.4,1.5,0.4
		c1.3,0,3.1,0.5,5.4,1.5c0.7,0.3,1.5,0.5,1.9,0.5c0.4,0,0.6,0.2,0.6,0.4s0.4,0.4,0.8,0.4s0.8,0.2,0.8,0.4c0,0.2,0.2,0.4,0.5,0.4
		c0.3,0,1.3,0.7,2.3,1.6c1,0.9,1.9,1.6,2.1,1.6c0.5,0,2.3,1.9,2.3,2.4c0,0.2,0.4,0.9,1,1.5c0.5,0.6,1.2,1.5,1.5,2.1
		c0.3,0.6,0.6,1.1,0.7,1.2c0.1,0.1,0.6,1.1,1.1,2.2c0.5,1.1,1.1,2.3,1.3,2.7c0.2,0.4,0.4,1.1,0.4,1.7s0.2,1,0.4,1s0.4,0.9,0.4,2
		c0,1.1,0.2,2,0.4,2c0.3,0,0.4,29.9,0.4,88.8c0,58.8-0.1,88.9-0.4,89c-0.2,0.1-0.4,1.1-0.4,2.2c0,1.2-0.2,2-0.5,2
		c-0.3,0-0.4,0.6-0.2,1.9c0.7,6-8.8,16.2-17.9,19.2c-4.6,1.5-1.2,1.5-96,1.5c-94.9,0-91.5,0.1-96-1.5c-7.1-2.5-13.4-8.1-16.8-15
		c-3.5-7.1-3.3-1.4-3.3-99.1c0-98.2-0.2-92.2,3.5-99.6c3.9-7.6,13-15.1,17.6-14.4c0.9,0.2,1.6,0.1,1.8-0.2c0.2-0.2,1-0.4,1.8-0.4
		c0.9,0,1.7-0.2,1.8-0.4C110.5,88.6,289.1,88.6,289.4,89.2"/>
</g>
</svg>
